<svg xmlns="http://www.w3.org/2000/svg" fill="none" overflow="visible" preserveAspectRatio="none" style="display:block" viewBox="0 0 80 80"><path fill="url(#a)" fill-rule="evenodd" d="M70.592.262c5.552-1.487 10.633 3.594 9.146 9.146L62.307 74.461c-1.488 5.552-8.429 7.412-12.494 3.347L36.137 64.131c-5.784-5.86-5.852-15.519 0-21.37l-.139.136c-5.911 5.764-15.376 5.718-21.231-.137L2.191 30.187C-1.873 26.122-.013 19.18 5.539 17.693zM57.368 21.527c-5.912 5.763-15.377 5.718-21.232-.137l.137.138c5.764 5.912 5.718 15.377-.137 21.232 5.901-5.901 15.47-5.901 21.37 0l-.137-.139c-5.763-5.912-5.718-15.376.138-21.231z" clip-rule="evenodd"/><defs><linearGradient id="a" x1="80" x2="16.724" y1="-6.188" y2="57.088" gradientUnits="userSpaceOnUse"><stop stop-color="#dee4ff"/><stop offset="1" stop-color="#dcf5f4"/></linearGradient></defs></svg>