<svg xmlns="http://www.w3.org/2000/svg" fill="none" overflow="visible" preserveAspectRatio="none" style="display:block" viewBox="0 0 26 26"><path fill="var(--fill-0, white)" stroke="var(--stroke-0, #6b7684)" stroke-width="2" d="M4.333 20.583v-9.75q0-.514.231-.975T5.2 9.1l6.5-4.875q.57-.433 1.3-.433t1.3.433L20.8 9.1q.406.298.637.758t.23.975v9.75q0 .894-.637 1.531a2.08 2.08 0 0 1-1.53.636h-3.25q-.46 0-.771-.312a1.05 1.05 0 0 1-.312-.771V17.25q0-.46-.312-.771a1.05 1.05 0 0 0-.772-.312h-2.166q-.46 0-.772.312a1.05 1.05 0 0 0-.312.771v4.417q0 .46-.312.772a1.04 1.04 0 0 1-.771.311H6.5a2.1 2.1 0 0 1-1.53-.636 2.1 2.1 0 0 1-.637-1.53Z"/></svg>