<svg xmlns="http://www.w3.org/2000/svg" width="24" height="24" fill="none" viewBox="0 0 24 24"><rect width="24" height="24" fill="#f5f7fa" rx="6"/><path fill="#71d1f0" d="M15.562 4.9a2 2 0 0 1 2 2v10.151a.53.53 0 0 1-.131.35l-1.325 1.516a.53.53 0 0 1-.798 0l-1.057-1.21a.53.53 0 0 0-.799 0l-1.056 1.21a.53.53 0 0 1-.799 0l-1.057-1.21a.53.53 0 0 0-.798 0l-1.057 1.21a.53.53 0 0 1-.799 0L6.561 17.4a.53.53 0 0 1-.131-.35V6.9a2 2 0 0 1 2-2zm-6.799 7.322a.53.53 0 0 0 0 1.06h4.294a.53.53 0 0 0 0-1.06zm0-1.992a.53.53 0 0 0 0 1.06h6.465a.53.53 0 0 0 0-1.06zm0-1.992a.53.53 0 0 0 0 1.06h6.465a.53.53 0 0 0 0-1.06z"/></svg>