<svg xmlns="http://www.w3.org/2000/svg" width="24" height="24" fill="none" viewBox="0 0 24 24"><svg width="16.688" height="7.788" x="3.656" y="2.952" viewBox="0 0 16.688 7.788"><path fill="#32b1ff" d="M16.688 7.788a7.3 7.3 0 0 0-.635-2.98 7.8 7.8 0 0 0-1.809-2.527A8.4 8.4 0 0 0 11.537.593 8.9 8.9 0 0 0 8.344 0c-1.096 0-2.18.201-3.193.593A8.4 8.4 0 0 0 2.444 2.28 7.8 7.8 0 0 0 .635 4.808 7.3 7.3 0 0 0 0 7.788z"/></svg><path fill="#32b1ff" d="M4.434 10.656h15.133v1.728H4.434z"/><svg width="20.753" height="3.228" x="1.624" y="10.296" viewBox="0 0 20.753 3.228"><path fill="#32b1ff" d="M10.377 0c6.896 0 10.354 2.138 10.376 2.152v1.076H0V2.152C.022 2.138 3.48 0 10.377 0"/></svg><svg width="3.974" height="7.945" x="4.733" y="12.438" viewBox="0 0 3.974 7.945"><path stroke="#32b1ff" stroke-width="1.92" d="M.923.265 3.05 7.68"/></svg><svg width="3.974" height="7.945" x="15.163" y="12.438" viewBox="0 0 3.974 7.945"><path stroke="#32b1ff" stroke-width="1.92" d="M3.05.265.924 7.68"/></svg></svg>